<svg xmlns="http://www.w3.org/2000/svg" width="362.829" height="39.525" viewBox="0 0 362.829 39.525"><g transform="translate(-13.584 -66.673)"><g transform="translate(-4520.522 -1713.749)"><g transform="translate(4534.453 1780.734)"><g transform="translate(0 0)"><path d="M360.141.922,4.309.946A3.134,3.134,0,0,0,1.156,4.061v32.7a3.134,3.134,0,0,0,3.153,3.114l355.832-.024a3.134,3.134,0,0,0,3.153-3.114V4.036A3.134,3.134,0,0,0,360.141.922Zm-91.3,32.627-3.3,3.189H159.118l-53.9.024H98.91l-3.3-3.189a12.773,12.773,0,0,1,.05-25.543L98.91,4.839h6.307l53.9-.024H265.543L268.8,8.006a12.773,12.773,0,0,1,.05,25.543Z" transform="translate(-1.156 -0.922)" fill="#d2bb94" fill-rule="evenodd"/></g><g transform="translate(184.849 0.063)"><path d="M235.6,6.152h79.311l.315.234a20.78,20.78,0,0,1,2.478,2.1q.472.467.905.973a11.9,11.9,0,0,1,8.3,3.621,13.24,13.24,0,0,1,1.731,2.1,11.868,11.868,0,0,1,1.082,2.024,12.3,12.3,0,0,1,.885,4.555m53.514-7.785h.708a24.73,24.73,0,0,1,3.7.428,18.746,18.746,0,0,1,4.762,1.635,21.258,21.258,0,0,1,7.122,5.84A19.29,19.29,0,0,0,404.7,9.423H374.759a12.6,12.6,0,0,0-10.27,5.684m-2.714-1.947A15.1,15.1,0,0,1,362.8,11.8q.471-.545.984-1.051.747-.7,1.534-1.324h-9.01a17.971,17.971,0,0,1,1.494,1.324,16.363,16.363,0,0,1,3.031,4.049,15.121,15.121,0,0,1,1.653,6.891v.468a12.031,12.031,0,0,0,2.007,6.579,13.105,13.105,0,0,0,1.653,1.986,12.234,12.234,0,0,0,8.617,3.659l29.945-.04a19.4,19.4,0,0,0-4.289-12.458,17.468,17.468,0,0,1-1.771,1.947,21.1,21.1,0,0,1-5.312,3.933,19.5,19.5,0,0,1-4.761,1.635,24.884,24.884,0,0,1-3.738.429h-.708m-53.515-8.06v.156a16.02,16.02,0,0,0,.748,4.943,14.977,14.977,0,0,0,.9,2.181,15.88,15.88,0,0,0,2.991,4.01,15.508,15.508,0,0,0,10.9,4.632h62.17M330.611,21.764c0,.051,0,.1,0,.156M408.324,6.152h-62.17a15.578,15.578,0,0,0-10.9,4.594,15.33,15.33,0,0,0-2.991,4.088m-3.619,13.821a14.252,14.252,0,0,1-1.731,2.063,12.049,12.049,0,0,1-8.3,3.659c-.289.311-.59.624-.905.934a21.084,21.084,0,0,1-2.518,2.141c-.1.079-.21.157-.314.234H238.3m122.49-8.6a15.243,15.243,0,0,1-2.99,3.973q-.708.7-1.456,1.323h8.932a18.094,18.094,0,0,1-1.494-1.323q-.512-.507-.944-1.013c-.333-.392-.641-.79-.925-1.187M238.969,6.152h-.63" transform="translate(-235.192 -2.143)" fill="none" stroke="#8a795f" stroke-miterlimit="10" stroke-width="0.75" fill-rule="evenodd"/><path d="M235.191,39.778H409.3q3.147,0,3.147-3.114V4.117Q412.449,1,409.3,1H235.191" transform="translate(-235.191 -1.003)" fill="none" stroke="#8a795f" stroke-miterlimit="10" stroke-width="0.75" fill-rule="evenodd"/><path d="M351.785,32.024a13.037,13.037,0,0,0,1.636-1.986,12.128,12.128,0,0,0,1.985-6.579v-.468a15.232,15.232,0,0,1,1.635-6.891,16.349,16.349,0,0,1,3-4.049" transform="translate(-260.006 -3.449)" fill="none" stroke="#8a795f" stroke-miterlimit="10" stroke-width="0.75" fill-rule="evenodd"/><path d="M355.385,8.488a19.734,19.734,0,0,1,2.8-2.336H340.942a15.154,15.154,0,0,1,10.706,4.594q.545.545,1.051,1.129A18.137,18.137,0,0,1,355.385,8.488Z" transform="translate(-257.647 -2.143)" fill="none" stroke="#8a795f" stroke-miterlimit="10" stroke-width="0.75" fill-rule="evenodd"/><path d="M355.384,42.65A18.731,18.731,0,0,1,352.7,39.3q-.506.545-1.051,1.09a15.089,15.089,0,0,1-10.706,4.632h17.285A19.975,19.975,0,0,1,355.384,42.65Z" transform="translate(-257.646 -9.482)" fill="none" stroke="#8a795f" stroke-miterlimit="10" stroke-width="0.75" fill-rule="evenodd"/><path d="M450.691,22.854a23.16,23.16,0,0,1,3.5,11.679V10.9a23.7,23.7,0,0,1-2.647,10.511A15.874,15.874,0,0,1,450.691,22.854Z" transform="translate(-281.063 -3.194)" fill="none" stroke="#8a795f" stroke-miterlimit="10" stroke-width="0.75" fill-rule="evenodd"/><path d="M443.677,13.5a15.018,15.018,0,0,1-1.557,5.256,16.942,16.942,0,0,0-9.927-5.191" transform="translate(-276.968 -3.77)" fill="none" stroke="#8a795f" stroke-miterlimit="10" stroke-width="0.75" fill-rule="evenodd"/><path d="M443.677,37.842a15.023,15.023,0,0,0-1.557-5.256,16.943,16.943,0,0,1-9.927,5.19" transform="translate(-276.968 -7.995)" fill="none" stroke="#8a795f" stroke-miterlimit="10" stroke-width="0.75" fill-rule="evenodd"/><g transform="translate(130.736 10.803)"><path d="M413.841,37.842" transform="translate(-404.044 -19.962)" fill="none" stroke="#8a795f" stroke-miterlimit="10" stroke-width="0.75" fill-rule="evenodd"/><path d="M413.841,14.932" transform="translate(-404.044 -14.89)" fill="none" stroke="#8a795f" stroke-miterlimit="10" stroke-width="0.75" fill-rule="evenodd"/><path d="M407.227,23.84a12.289,12.289,0,0,1,3.828-8.92c-.276-.026-.554-.042-.837-.042a8.961,8.961,0,0,0,0,17.922c.283,0,.561-.016.837-.043A12.281,12.281,0,0,1,407.227,23.84Z" transform="translate(-401.258 -14.878)" fill="none" stroke="#8a795f" stroke-miterlimit="10" stroke-width="0.75" fill-rule="evenodd"/><path d="M412.752,14.932a12.3,12.3,0,0,0,0,17.838" transform="translate(-402.955 -14.89)" fill="none" stroke="#8a795f" stroke-miterlimit="10" stroke-width="0.75" fill-rule="evenodd"/></g><path d="M374.936,15.718a5.834,5.834,0,0,1,.794,3.105,7.7,7.7,0,0,1-.145,1.517,6.625,6.625,0,0,1,.939-1.155,6.28,6.28,0,0,1,2.709-1.7,2.365,2.365,0,0,1,1.3,0,2.772,2.772,0,0,1-.072,1.228,5.666,5.666,0,0,1-1.626,2.78,6.613,6.613,0,0,1-1.155.939,7.348,7.348,0,0,1,1.516-.145,6.3,6.3,0,0,1,3.105.723,2.012,2.012,0,0,1,.9.9,2.182,2.182,0,0,1-.9.83,5.821,5.821,0,0,1-3.105.795,7.348,7.348,0,0,1-1.516-.145,7.319,7.319,0,0,1,1.191.975,6.292,6.292,0,0,1,1.7,2.709,2.38,2.38,0,0,1,0,1.3,2.785,2.785,0,0,1-1.228-.073,5.647,5.647,0,0,1-2.78-1.624,6.282,6.282,0,0,1-.976-1.229,7.9,7.9,0,0,1,.145,1.553,6.3,6.3,0,0,1-.722,3.105,2.028,2.028,0,0,1-.9.9,2.193,2.193,0,0,1-.831-.9,5.828,5.828,0,0,1-.794-3.105,5.938,5.938,0,0,1,.181-1.516,9.255,9.255,0,0,1-1.012,1.192,6.282,6.282,0,0,1-2.709,1.7,2.38,2.38,0,0,1-1.3,0,2.79,2.79,0,0,1,.073-1.229,5.653,5.653,0,0,1,1.626-2.78,6.245,6.245,0,0,1,1.226-.975,7.937,7.937,0,0,1-1.552.145,6.308,6.308,0,0,1-3.105-.723,2.012,2.012,0,0,1-.9-.9,2.177,2.177,0,0,1,.9-.83,5.832,5.832,0,0,1,3.105-.795,5.97,5.97,0,0,1,1.516.18,9.184,9.184,0,0,1-1.19-1.011,6.3,6.3,0,0,1-1.7-2.709,2.391,2.391,0,0,1,0-1.3,2.783,2.783,0,0,1,1.228.072,5.655,5.655,0,0,1,2.78,1.625,6.235,6.235,0,0,1,.976,1.228,7.9,7.9,0,0,1-.145-1.553,6.293,6.293,0,0,1,.723-3.105,2.026,2.026,0,0,1,.9-.9A2.186,2.186,0,0,1,374.936,15.718Z" transform="translate(-262.749 -4.061)" fill="none" stroke="#8a795f" stroke-miterlimit="10" stroke-width="0.75" fill-rule="evenodd"/><path d="M374.79,21.948a4.106,4.106,0,0,1,.614,1.517.293.293,0,0,0,.036.108.114.114,0,0,0,.037.072,1.749,1.749,0,0,1,.795-.18,1.768,1.768,0,0,1,.722.144.39.39,0,0,1,.037-.181,4.863,4.863,0,0,1,.722-1.517" transform="translate(-264.939 -5.632)" fill="none" stroke="#8a795f" stroke-miterlimit="10" stroke-width="0.75" fill-rule="evenodd"/><path d="M372.1,24.513a4.719,4.719,0,0,0,1.48.65.7.7,0,0,0,.216.036c0,.023.025.036.072.036a1.607,1.607,0,0,1,.434-.758,1.511,1.511,0,0,1,.541-.361v-.072" transform="translate(-264.367 -6.104)" fill="none" stroke="#8a795f" stroke-miterlimit="10" stroke-width="0.75" fill-rule="evenodd"/><line x2="0.037" transform="translate(110.488 18.013)" fill="none" stroke="#8a795f" stroke-miterlimit="10" stroke-width="0.75"/><path d="M372.146,27.777a4.118,4.118,0,0,1,1.517-.614h.108a1.322,1.322,0,0,1,.181-.145,1.849,1.849,0,0,1-.181-.83,1.728,1.728,0,0,1,.109-.614" transform="translate(-264.383 -6.443)" fill="none" stroke="#8a795f" stroke-miterlimit="10" stroke-width="0.75" fill-rule="evenodd"/><path d="M374.232,27.574l.218-.073a.1.1,0,0,1-.037-.072" transform="translate(-264.838 -6.853)" fill="none" stroke="#8a795f" stroke-miterlimit="10" stroke-width="0.75" fill-rule="evenodd"/><path d="M377.619,24.091a1.589,1.589,0,0,1,.614.4,1.98,1.98,0,0,1,.47.723.1.1,0,0,1,.072-.036.146.146,0,0,1,.108-.036,5.042,5.042,0,0,0,1.589-.65" transform="translate(-265.542 -6.114)" fill="none" stroke="#8a795f" stroke-miterlimit="10" stroke-width="0.75" fill-rule="evenodd"/><path d="M379,25.529a2.024,2.024,0,0,1-.036,1.407.233.233,0,0,0,.145.11.633.633,0,0,1,.18.035,4.347,4.347,0,0,1,1.48.688" transform="translate(-265.836 -6.433)" fill="none" stroke="#8a795f" stroke-miterlimit="10" stroke-width="0.75" fill-rule="evenodd"/><path d="M378.832,27.467a.4.4,0,0,1-.181-.037,1.6,1.6,0,0,1-.4.506,3.109,3.109,0,0,1-.541.432,2.557,2.557,0,0,1,.072.289v.073a4.11,4.11,0,0,0,.614,1.516" transform="translate(-265.574 -6.854)" fill="none" stroke="#8a795f" stroke-miterlimit="10" stroke-width="0.75" fill-rule="evenodd"/><path d="M378.955,27.336a.105.105,0,0,0-.037.073" transform="translate(-265.838 -6.833)" fill="none" stroke="#8a795f" stroke-miterlimit="10" stroke-width="0.75" fill-rule="evenodd"/><path d="M377.148,28.934c-.072-.1-.133-.179-.18-.252a2.132,2.132,0,0,1-.687.108,1.7,1.7,0,0,1-.613-.108l-.146.217a.582.582,0,0,1-.037.179,4.722,4.722,0,0,1-.649,1.481" transform="translate(-264.953 -7.131)" fill="none" stroke="#8a795f" stroke-miterlimit="10" stroke-width="0.75" fill-rule="evenodd"/><path d="M377.681,28.635a.147.147,0,0,0-.108.037" transform="translate(-265.551 -7.12)" fill="none" stroke="#8a795f" stroke-miterlimit="10" stroke-width="0.75" fill-rule="evenodd"/><path d="M375.451,28.642a1.059,1.059,0,0,0,.036-.254,1.936,1.936,0,0,1-.65-.432,2.037,2.037,0,0,1-.324-.435" transform="translate(-264.893 -6.874)" fill="none" stroke="#8a795f" stroke-miterlimit="10" stroke-width="0.75" fill-rule="evenodd"/><path d="M375.873,28.672a.151.151,0,0,1-.11-.037" transform="translate(-265.165 -7.12)" fill="none" stroke="#8a795f" stroke-miterlimit="10" stroke-width="0.75" fill-rule="evenodd"/><path d="M381.947,14.011a12.012,12.012,0,0,1,3.66,8.6v.468a11.883,11.883,0,0,1-3.66,8.565,11.913,11.913,0,0,1-8.8,3.659A12.427,12.427,0,0,1,360.691,22.85a12.108,12.108,0,0,1,3.621-8.838,12.041,12.041,0,0,1,8.837-3.659A11.912,11.912,0,0,1,381.947,14.011Z" transform="translate(-261.783 -3.073)" fill="none" stroke="#8a795f" stroke-miterlimit="10" stroke-width="0.75" fill-rule="evenodd"/><path d="M433.457,21.076" transform="translate(-277.248 -5.447)" fill="none" stroke="#8a795f" stroke-miterlimit="10" stroke-width="0.75" fill-rule="evenodd"/><path d="M433.457,31.7" transform="translate(-277.248 -7.799)" fill="none" stroke="#8a795f" stroke-miterlimit="10" stroke-width="0.75" fill-rule="evenodd"/><path d="M433.457,29.347a7.884,7.884,0,0,0,0-8.271" transform="translate(-277.248 -5.447)" fill="none" stroke="#8a795f" stroke-miterlimit="10" stroke-width="0.75" fill-rule="evenodd"/><path d="M422.512,16.21a7.924,7.924,0,0,0,0,15.848" transform="translate(-273.376 -4.37)" fill="none" stroke="#8a795f" stroke-miterlimit="10" stroke-width="0.75" fill-rule="evenodd"/><circle cx="4.16" cy="4.16" r="4.16" transform="translate(145.282 15.604)" fill="none" stroke="#8a795f" stroke-miterlimit="10" stroke-width="0.75"/><circle cx="1.866" cy="1.866" r="1.866" transform="translate(109.505 17.908)" fill="none" stroke="#8a795f" stroke-miterlimit="10" stroke-width="0.75"/><path d="M381.3,15.345h.036a.719.719,0,0,1,.18.469v.108a.629.629,0,0,1-.18.325.547.547,0,0,1-.432.216.677.677,0,0,1-.649-.649.719.719,0,0,1,.18-.469.635.635,0,0,1,.469-.18A.475.475,0,0,1,381.3,15.345Z" transform="translate(-266.114 -4.138)" fill="none" stroke="#8a795f" stroke-miterlimit="10" stroke-width="0.75" fill-rule="evenodd"/><path d="M371.686,15.3a.481.481,0,0,1,.432-.144l.036-.036a.752.752,0,0,1,.434.216l.072.072a.652.652,0,0,1,.109.324.541.541,0,0,1-.649.649.484.484,0,0,1-.432-.144.7.7,0,0,1,0-.936Z" transform="translate(-264.25 -4.128)" fill="none" stroke="#8a795f" stroke-miterlimit="10" stroke-width="0.75" fill-rule="evenodd"/><path d="M366.106,21.319a.624.624,0,0,1,.325.181.542.542,0,0,1,.216.432.582.582,0,0,1-.216.469.589.589,0,0,1-.432.18.719.719,0,0,1-.47-.18.637.637,0,0,1-.18-.469.482.482,0,0,1,.18-.4V21.5a.72.72,0,0,1,.47-.181Z" transform="translate(-262.937 -5.501)" fill="none" stroke="#8a795f" stroke-miterlimit="10" stroke-width="0.75" fill-rule="evenodd"/><path d="M365.592,30.172a.635.635,0,0,1,.325-.108.54.54,0,0,1,.649.648.48.48,0,0,1-.145.432.7.7,0,0,1-.937,0,.488.488,0,0,1-.145-.432l-.036-.035a.749.749,0,0,1,.216-.434C365.543,30.22,365.568,30.2,365.592,30.172Z" transform="translate(-262.927 -7.435)" fill="none" stroke="#8a795f" stroke-miterlimit="10" stroke-width="0.75" fill-rule="evenodd"/><path d="M372.767,36.824a.73.73,0,0,1-.18.469.636.636,0,0,1-.469.179.478.478,0,0,1-.4-.179h-.036a.718.718,0,0,1-.18-.469v-.108a.618.618,0,0,1,.18-.324.541.541,0,0,1,.432-.216.585.585,0,0,1,.469.216A.594.594,0,0,1,372.767,36.824Z" transform="translate(-264.25 -8.79)" fill="none" stroke="#8a795f" stroke-miterlimit="10" stroke-width="0.75" fill-rule="evenodd"/><path d="M387.017,21.366a.634.634,0,0,1,.469.18.487.487,0,0,1,.146.432l.036.037a.755.755,0,0,1-.216.433c-.023.023-.047.048-.073.072a.633.633,0,0,1-.323.108.541.541,0,0,1-.649-.649.481.481,0,0,1,.145-.432A.621.621,0,0,1,387.017,21.366Z" transform="translate(-267.425 -5.511)" fill="none" stroke="#8a795f" stroke-miterlimit="10" stroke-width="0.75" fill-rule="evenodd"/><path d="M380.25,36.916a.541.541,0,0,1,.649-.649.484.484,0,0,1,.432.145.7.7,0,0,1,0,.936.481.481,0,0,1-.432.145l-.037.037a.747.747,0,0,1-.433-.216c-.023-.024-.048-.048-.072-.072A.674.674,0,0,1,380.25,36.916Z" transform="translate(-266.113 -8.808)" fill="none" stroke="#8a795f" stroke-miterlimit="10" stroke-width="0.75" fill-rule="evenodd"/><path d="M387.658,30.714a.479.479,0,0,1-.181.4v.035a.718.718,0,0,1-.469.181H386.9a.624.624,0,0,1-.325-.181.543.543,0,0,1-.216-.432.675.675,0,0,1,.648-.648.716.716,0,0,1,.469.179A.634.634,0,0,1,387.658,30.714Z" transform="translate(-267.417 -7.437)" fill="none" stroke="#8a795f" stroke-miterlimit="10" stroke-width="0.75" fill-rule="evenodd"/><path d="M424.642,25.678a.634.634,0,0,1,.469.18.487.487,0,0,1,.146.432l.036.037a.75.75,0,0,1-.216.432c-.023.024-.047.048-.073.072a.626.626,0,0,1-.323.108.54.54,0,0,1-.649-.649.48.48,0,0,1,.145-.432A.627.627,0,0,1,424.642,25.678Z" transform="translate(-275.16 -6.466)" fill="none" stroke="#8a795f" stroke-miterlimit="10" stroke-width="0.75" fill-rule="evenodd"/><path d="M404.642,25.678a.634.634,0,0,1,.469.18.487.487,0,0,1,.146.432l.036.037a.75.75,0,0,1-.216.432c-.023.024-.048.048-.073.072a.626.626,0,0,1-.323.108.54.54,0,0,1-.649-.649.48.48,0,0,1,.145-.432A.627.627,0,0,1,404.642,25.678Z" transform="translate(-271.182 -6.466)" fill="none" stroke="#8a795f" stroke-miterlimit="10" stroke-width="0.75" fill-rule="evenodd"/><path d="M442.809,13.345a.634.634,0,0,1,.469.18.488.488,0,0,1,.146.432l.036.037a.755.755,0,0,1-.216.433c-.023.023-.047.048-.073.072a.633.633,0,0,1-.323.108.541.541,0,0,1-.649-.649.481.481,0,0,1,.145-.432A.621.621,0,0,1,442.809,13.345Z" transform="translate(-279.182 -3.735)" fill="none" stroke="#8a795f" stroke-miterlimit="10" stroke-width="0.75" fill-rule="evenodd"/><path d="M355.393,8.011a.634.634,0,0,1,.469.18.488.488,0,0,1,.146.432l.036.037a.755.755,0,0,1-.216.433c-.023.023-.048.048-.073.072a.633.633,0,0,1-.323.108.541.541,0,0,1-.649-.649.481.481,0,0,1,.145-.432A.624.624,0,0,1,355.393,8.011Z" transform="translate(-260.683 -2.554)" fill="none" stroke="#8a795f" stroke-miterlimit="10" stroke-width="0.75" fill-rule="evenodd"/><path d="M355.393,43.178a.634.634,0,0,1,.469.179.488.488,0,0,1,.146.432l.036.037a.755.755,0,0,1-.216.434c-.023.023-.048.048-.073.072a.64.64,0,0,1-.323.108.541.541,0,0,1-.649-.649.481.481,0,0,1,.145-.432A.624.624,0,0,1,355.393,43.178Z" transform="translate(-260.683 -10.34)" fill="none" stroke="#8a795f" stroke-miterlimit="10" stroke-width="0.75" fill-rule="evenodd"/><path d="M442.809,37.928a.634.634,0,0,1,.469.179.488.488,0,0,1,.146.432l.036.037a.755.755,0,0,1-.216.434c-.023.023-.047.047-.073.072a.64.64,0,0,1-.323.108.541.541,0,0,1-.649-.649.482.482,0,0,1,.145-.432A.624.624,0,0,1,442.809,37.928Z" transform="translate(-279.182 -9.178)" fill="none" stroke="#8a795f" stroke-miterlimit="10" stroke-width="0.75" fill-rule="evenodd"/><path d="M417.184,13.345a.634.634,0,0,1,.469.18.487.487,0,0,1,.146.432l.036.037a.755.755,0,0,1-.216.433c-.023.023-.047.048-.073.072a.633.633,0,0,1-.323.108.541.541,0,0,1-.649-.649.481.481,0,0,1,.145-.432A.621.621,0,0,1,417.184,13.345Z" transform="translate(-273.509 -3.735)" fill="none" stroke="#8a795f" stroke-miterlimit="10" stroke-width="0.75" fill-rule="evenodd"/><path d="M417.184,37.928a.634.634,0,0,1,.469.179.487.487,0,0,1,.146.432l.036.037a.755.755,0,0,1-.216.434c-.023.023-.047.047-.073.072a.64.64,0,0,1-.323.108.541.541,0,0,1-.649-.649.481.481,0,0,1,.145-.432A.624.624,0,0,1,417.184,37.928Z" transform="translate(-273.509 -9.178)" fill="none" stroke="#8a795f" stroke-miterlimit="10" stroke-width="0.75" fill-rule="evenodd"/><path d="M438.779,25.076a.762.762,0,0,1,.564.216.587.587,0,0,1,.174.52l.043.044a.909.909,0,0,1-.26.52c-.029.027-.057.057-.087.085a.773.773,0,0,1-.389.13.65.65,0,0,1-.779-.779.578.578,0,0,1,.174-.52A.749.749,0,0,1,438.779,25.076Z" transform="translate(-278.262 -6.332)" fill="none" stroke="#8a795f" stroke-miterlimit="10" stroke-width="0.75" fill-rule="evenodd"/><path d="M405.549,21.709a.634.634,0,0,1,.469.18.488.488,0,0,1,.146.432l.036.037a.755.755,0,0,1-.216.433c-.023.023-.047.048-.073.072a.633.633,0,0,1-.323.108.541.541,0,0,1-.649-.649.481.481,0,0,1,.145-.432A.623.623,0,0,1,405.549,21.709Z" transform="translate(-271.376 -5.587)" fill="none" stroke="#8a795f" stroke-miterlimit="10" stroke-width="0.75" fill-rule="evenodd"/><path d="M405.549,29.709a.634.634,0,0,1,.469.179.489.489,0,0,1,.146.434l.036.037a.755.755,0,0,1-.216.432c-.023.024-.047.048-.073.072a.626.626,0,0,1-.323.108.54.54,0,0,1-.649-.648.483.483,0,0,1,.145-.434A.622.622,0,0,1,405.549,29.709Z" transform="translate(-271.376 -7.358)" fill="none" stroke="#8a795f" stroke-miterlimit="10" stroke-width="0.75" fill-rule="evenodd"/></g><g transform="translate(0.028 0.063)"><path d="M84.547,21.764a12.249,12.249,0,0,1,.889-4.555,11.848,11.848,0,0,1,1.087-2.024,13.255,13.255,0,0,1,1.739-2.1A11.973,11.973,0,0,1,96.6,9.462q.435-.506.909-.973A20.91,20.91,0,0,1,100,6.386l.316-.234h87.565M50.519,15.106A12.662,12.662,0,0,0,40.2,9.422H10.128A19.239,19.239,0,0,0,14.436,21.88a21.324,21.324,0,0,1,7.153-5.84,18.874,18.874,0,0,1,4.783-1.635,25.059,25.059,0,0,1,3.714-.428H30.8m0,15.846h-.711a25,25,0,0,1-3.755-.429,19.648,19.648,0,0,1-4.782-1.635,21.187,21.187,0,0,1-5.335-3.933,17.5,17.5,0,0,1-1.778-1.947,19.34,19.34,0,0,0-4.308,12.458l30.077.04a12.316,12.316,0,0,0,8.654-3.659,13.079,13.079,0,0,0,1.661-1.986,12,12,0,0,0,2.016-6.579v-.468a15.048,15.048,0,0,1,1.66-6.891,16.368,16.368,0,0,1,3.044-4.049,18.145,18.145,0,0,1,1.5-1.324H49.69q.79.623,1.541,1.324.515.507.988,1.051a15.264,15.264,0,0,1,1.028,1.363M6.492,37.686H68.936a15.612,15.612,0,0,0,10.948-4.632,15.9,15.9,0,0,0,3-4.01,14.831,14.831,0,0,0,.908-2.181,15.956,15.956,0,0,0,.751-4.943v-.156m0,.156c0-.053,0-.105,0-.156m-1.659-6.93a15.334,15.334,0,0,0-3-4.088A15.679,15.679,0,0,0,68.936,6.152H6.492M185.17,37.686H100.356c-.105-.078-.211-.155-.315-.234a21.089,21.089,0,0,1-2.529-2.141c-.316-.31-.619-.622-.909-.934a12.127,12.127,0,0,1-8.339-3.659,14.31,14.31,0,0,1-1.739-2.063m-33.416,2.2q-.427.6-.929,1.187-.434.507-.949,1.013a18.135,18.135,0,0,1-1.5,1.323H58.7q-.751-.622-1.462-1.323a15.235,15.235,0,0,1-3-3.973M185.13,6.152H184.5" transform="translate(-2.365 -2.143)" fill="none" stroke="#8a795f" stroke-miterlimit="10" stroke-width="0.75" fill-rule="evenodd"/><path d="M187.119,39.778H4.353q-3.161,0-3.161-3.114V4.117Q1.192,1,4.353,1H187.119" transform="translate(-1.192 -1.003)" fill="none" stroke="#8a795f" stroke-miterlimit="10" stroke-width="0.75" fill-rule="evenodd"/><path d="M107.551,32.024a13.036,13.036,0,0,1-1.636-1.986,12.128,12.128,0,0,1-1.985-6.579v-.468a15.233,15.233,0,0,0-1.635-6.891,16.35,16.35,0,0,0-3-4.049" transform="translate(-21.724 -3.449)" fill="none" stroke="#8a795f" stroke-miterlimit="10" stroke-width="0.75" fill-rule="evenodd"/><path d="M101.395,8.488a19.735,19.735,0,0,0-2.8-2.336h17.246a15.154,15.154,0,0,0-10.706,4.594q-.545.545-1.051,1.129A18.073,18.073,0,0,0,101.395,8.488Z" transform="translate(-21.512 -2.143)" fill="none" stroke="#8a795f" stroke-miterlimit="10" stroke-width="0.75" fill-rule="evenodd"/><path d="M101.384,42.65A18.731,18.731,0,0,0,104.07,39.3q.506.545,1.051,1.09a15.089,15.089,0,0,0,10.706,4.632H98.542A19.937,19.937,0,0,0,101.384,42.65Z" transform="translate(-21.502 -9.482)" fill="none" stroke="#8a795f" stroke-miterlimit="10" stroke-width="0.75" fill-rule="evenodd"/><path d="M10,22.854a23.16,23.16,0,0,0-3.5,11.679V10.9A23.7,23.7,0,0,0,9.139,21.413,16.235,16.235,0,0,0,10,22.854Z" transform="translate(-2.365 -3.194)" fill="none" stroke="#8a795f" stroke-miterlimit="10" stroke-width="0.75" fill-rule="evenodd"/><path d="M14.741,13.5A15.018,15.018,0,0,0,16.3,18.758a16.942,16.942,0,0,1,9.927-5.191" transform="translate(-4.192 -3.77)" fill="none" stroke="#8a795f" stroke-miterlimit="10" stroke-width="0.75" fill-rule="evenodd"/><path d="M14.741,37.842A15.023,15.023,0,0,1,16.3,32.586a16.944,16.944,0,0,0,9.927,5.19" transform="translate(-4.192 -7.995)" fill="none" stroke="#8a795f" stroke-miterlimit="10" stroke-width="0.75" fill-rule="evenodd"/><g transform="translate(36.893 10.803)"><path d="M47.843,37.842" transform="translate(-47.843 -19.962)" fill="none" stroke="#8a795f" stroke-miterlimit="10" stroke-width="0.75" fill-rule="evenodd"/><path d="M47.843,14.932" transform="translate(-47.843 -14.89)" fill="none" stroke="#8a795f" stroke-miterlimit="10" stroke-width="0.75" fill-rule="evenodd"/><path d="M51.671,23.84a12.29,12.29,0,0,0-3.828-8.92c.276-.026.554-.042.837-.042a8.961,8.961,0,0,1,0,17.922c-.283,0-.561-.016-.837-.043A12.284,12.284,0,0,0,51.671,23.84Z" transform="translate(-47.843 -14.878)" fill="none" stroke="#8a795f" stroke-miterlimit="10" stroke-width="0.75" fill-rule="evenodd"/><path d="M47.843,14.932a12.3,12.3,0,0,1,0,17.838" transform="translate(-47.843 -14.89)" fill="none" stroke="#8a795f" stroke-miterlimit="10" stroke-width="0.75" fill-rule="evenodd"/></g><path d="M81.574,15.718a5.834,5.834,0,0,0-.794,3.105,7.7,7.7,0,0,0,.145,1.517,6.621,6.621,0,0,0-.939-1.155,6.279,6.279,0,0,0-2.709-1.7,2.365,2.365,0,0,0-1.3,0,2.772,2.772,0,0,0,.072,1.228,5.666,5.666,0,0,0,1.626,2.78,6.614,6.614,0,0,0,1.155.939,7.348,7.348,0,0,0-1.516-.145,6.3,6.3,0,0,0-3.105.723,2.012,2.012,0,0,0-.9.9,2.182,2.182,0,0,0,.9.83,5.821,5.821,0,0,0,3.105.795,7.348,7.348,0,0,0,1.516-.145,7.322,7.322,0,0,0-1.191.975,6.292,6.292,0,0,0-1.7,2.709,2.38,2.38,0,0,0,0,1.3,2.785,2.785,0,0,0,1.228-.073,5.647,5.647,0,0,0,2.78-1.624,6.284,6.284,0,0,0,.976-1.229,7.9,7.9,0,0,0-.145,1.553,6.3,6.3,0,0,0,.722,3.105,2.027,2.027,0,0,0,.9.9,2.193,2.193,0,0,0,.831-.9,5.828,5.828,0,0,0,.794-3.105,5.939,5.939,0,0,0-.181-1.516,9.253,9.253,0,0,0,1.012,1.192,6.282,6.282,0,0,0,2.709,1.7,2.38,2.38,0,0,0,1.3,0,2.789,2.789,0,0,0-.073-1.229,5.652,5.652,0,0,0-1.626-2.78,6.246,6.246,0,0,0-1.226-.975,7.938,7.938,0,0,0,1.552.145A6.308,6.308,0,0,0,90.6,24.82a2.012,2.012,0,0,0,.9-.9,2.177,2.177,0,0,0-.9-.83,5.832,5.832,0,0,0-3.105-.795,5.97,5.97,0,0,0-1.516.18,9.184,9.184,0,0,0,1.191-1.011,6.3,6.3,0,0,0,1.7-2.709,2.391,2.391,0,0,0,0-1.3,2.783,2.783,0,0,0-1.228.072,5.655,5.655,0,0,0-2.78,1.625,6.236,6.236,0,0,0-.976,1.228,7.9,7.9,0,0,0,.145-1.553,6.293,6.293,0,0,0-.723-3.105,2.026,2.026,0,0,0-.9-.9A2.181,2.181,0,0,0,81.574,15.718Z" transform="translate(-16.232 -4.061)" fill="none" stroke="#8a795f" stroke-miterlimit="10" stroke-width="0.75" fill-rule="evenodd"/><path d="M86.052,21.948a4.106,4.106,0,0,0-.614,1.517.292.292,0,0,1-.036.108.114.114,0,0,1-.037.072,1.749,1.749,0,0,0-.795-.18,1.769,1.769,0,0,0-.723.144.391.391,0,0,0-.037-.181,4.863,4.863,0,0,0-.722-1.517" transform="translate(-18.361 -5.632)" fill="none" stroke="#8a795f" stroke-miterlimit="10" stroke-width="0.75" fill-rule="evenodd"/><path d="M88.8,24.513a4.719,4.719,0,0,1-1.48.65.7.7,0,0,1-.216.036c0,.023-.025.036-.072.036a1.607,1.607,0,0,0-.434-.758,1.511,1.511,0,0,0-.541-.361v-.072" transform="translate(-18.985 -6.104)" fill="none" stroke="#8a795f" stroke-miterlimit="10" stroke-width="0.75" fill-rule="evenodd"/><line x1="0.037" transform="translate(67.023 18.013)" fill="none" stroke="#8a795f" stroke-miterlimit="10" stroke-width="0.75"/><path d="M89.025,27.777a4.118,4.118,0,0,0-1.517-.614H87.4a1.319,1.319,0,0,0-.181-.145,1.849,1.849,0,0,0,.181-.83,1.729,1.729,0,0,0-.109-.614" transform="translate(-19.233 -6.443)" fill="none" stroke="#8a795f" stroke-miterlimit="10" stroke-width="0.75" fill-rule="evenodd"/><path d="M87.389,27.574l-.218-.073a.1.1,0,0,0,.037-.072" transform="translate(-19.232 -6.853)" fill="none" stroke="#8a795f" stroke-miterlimit="10" stroke-width="0.75" fill-rule="evenodd"/><path d="M83.253,24.091a1.589,1.589,0,0,0-.614.4,1.98,1.98,0,0,0-.47.723.1.1,0,0,0-.072-.036.146.146,0,0,0-.108-.036,5.043,5.043,0,0,1-1.589-.65" transform="translate(-17.798 -6.114)" fill="none" stroke="#8a795f" stroke-miterlimit="10" stroke-width="0.75" fill-rule="evenodd"/><path d="M82.17,25.529a2.023,2.023,0,0,0,.036,1.407.233.233,0,0,1-.145.11.633.633,0,0,0-.18.035,4.348,4.348,0,0,0-1.48.688" transform="translate(-17.803 -6.433)" fill="none" stroke="#8a795f" stroke-miterlimit="10" stroke-width="0.75" fill-rule="evenodd"/><path d="M82.533,27.467a.4.4,0,0,0,.181-.037,1.6,1.6,0,0,0,.4.506,3.109,3.109,0,0,0,.541.432,2.574,2.574,0,0,0-.072.289v.073a4.11,4.11,0,0,1-.614,1.516" transform="translate(-18.254 -6.854)" fill="none" stroke="#8a795f" stroke-miterlimit="10" stroke-width="0.75" fill-rule="evenodd"/><path d="M82.719,27.336a.105.105,0,0,1,.037.073" transform="translate(-18.299 -6.833)" fill="none" stroke="#8a795f" stroke-miterlimit="10" stroke-width="0.75" fill-rule="evenodd"/><path d="M83.879,28.934c.072-.1.133-.179.18-.252a2.132,2.132,0,0,0,.687.108,1.7,1.7,0,0,0,.613-.108l.146.217a.583.583,0,0,0,.037.179,4.722,4.722,0,0,0,.649,1.481" transform="translate(-18.53 -7.131)" fill="none" stroke="#8a795f" stroke-miterlimit="10" stroke-width="0.75" fill-rule="evenodd"/><path d="M83.972,28.635a.147.147,0,0,1,.108.037" transform="translate(-18.561 -7.12)" fill="none" stroke="#8a795f" stroke-miterlimit="10" stroke-width="0.75" fill-rule="evenodd"/><path d="M85.956,28.642a1.064,1.064,0,0,1-.036-.254,1.935,1.935,0,0,0,.65-.432,2.036,2.036,0,0,0,.324-.435" transform="translate(-18.965 -6.874)" fill="none" stroke="#8a795f" stroke-miterlimit="10" stroke-width="0.75" fill-rule="evenodd"/><path d="M85.779,28.672a.151.151,0,0,0,.11-.037" transform="translate(-18.94 -7.12)" fill="none" stroke="#8a795f" stroke-miterlimit="10" stroke-width="0.75" fill-rule="evenodd"/><path d="M72.652,14.011a12.012,12.012,0,0,0-3.66,8.6v.468a11.883,11.883,0,0,0,3.66,8.565,11.913,11.913,0,0,0,8.8,3.659A12.427,12.427,0,0,0,93.908,22.85a12.108,12.108,0,0,0-3.621-8.838,12.041,12.041,0,0,0-8.837-3.659A11.914,11.914,0,0,0,72.652,14.011Z" transform="translate(-15.295 -3.073)" fill="none" stroke="#8a795f" stroke-miterlimit="10" stroke-width="0.75" fill-rule="evenodd"/><path d="M28.227,21.076" transform="translate(-7.177 -5.447)" fill="none" stroke="#8a795f" stroke-miterlimit="10" stroke-width="0.75" fill-rule="evenodd"/><path d="M28.227,31.7" transform="translate(-7.177 -7.799)" fill="none" stroke="#8a795f" stroke-miterlimit="10" stroke-width="0.75" fill-rule="evenodd"/><path d="M27.894,29.347a7.884,7.884,0,0,1,0-8.271" transform="translate(-6.844 -5.447)" fill="none" stroke="#8a795f" stroke-miterlimit="10" stroke-width="0.75" fill-rule="evenodd"/><path d="M36.919,16.21a7.924,7.924,0,0,1,0,15.848" transform="translate(-9.101 -4.37)" fill="none" stroke="#8a795f" stroke-miterlimit="10" stroke-width="0.75" fill-rule="evenodd"/><circle cx="4.16" cy="4.16" r="4.16" transform="translate(23.657 15.604)" fill="none" stroke="#8a795f" stroke-miterlimit="10" stroke-width="0.75"/><circle cx="1.866" cy="1.866" r="1.866" transform="translate(64.305 17.908)" fill="none" stroke="#8a795f" stroke-miterlimit="10" stroke-width="0.75"/><path d="M80.028,15.345h-.036a.719.719,0,0,0-.18.469v.108a.629.629,0,0,0,.18.325.546.546,0,0,0,.432.216.677.677,0,0,0,.649-.649.719.719,0,0,0-.18-.469.635.635,0,0,0-.47-.18A.475.475,0,0,0,80.028,15.345Z" transform="translate(-17.683 -4.138)" fill="none" stroke="#8a795f" stroke-miterlimit="10" stroke-width="0.75" fill-rule="evenodd"/><path d="M89.637,15.3a.481.481,0,0,0-.432-.144l-.036-.036a.752.752,0,0,0-.434.216l-.072.072a.652.652,0,0,0-.109.324.541.541,0,0,0,.649.649.484.484,0,0,0,.432-.144.631.631,0,0,0,.18-.468A.621.621,0,0,0,89.637,15.3Z" transform="translate(-19.515 -4.128)" fill="none" stroke="#8a795f" stroke-miterlimit="10" stroke-width="0.75" fill-rule="evenodd"/><path d="M95.208,21.319a.624.624,0,0,0-.325.181.542.542,0,0,0-.216.432.582.582,0,0,0,.216.469.589.589,0,0,0,.432.18.719.719,0,0,0,.469-.18.637.637,0,0,0,.18-.469.482.482,0,0,0-.18-.4V21.5a.72.72,0,0,0-.469-.181Z" transform="translate(-20.799 -5.501)" fill="none" stroke="#8a795f" stroke-miterlimit="10" stroke-width="0.75" fill-rule="evenodd"/><path d="M95.732,30.172a.635.635,0,0,0-.325-.108.54.54,0,0,0-.649.648.48.48,0,0,0,.145.432.7.7,0,0,0,.937,0,.488.488,0,0,0,.145-.432l.036-.035a.749.749,0,0,0-.216-.434C95.779,30.22,95.756,30.2,95.732,30.172Z" transform="translate(-20.816 -7.435)" fill="none" stroke="#8a795f" stroke-miterlimit="10" stroke-width="0.75" fill-rule="evenodd"/><path d="M88.558,36.824a.73.73,0,0,0,.18.469.636.636,0,0,0,.47.179.478.478,0,0,0,.4-.179h.036a.718.718,0,0,0,.18-.469v-.108a.618.618,0,0,0-.18-.324.541.541,0,0,0-.432-.216.585.585,0,0,0-.47.216A.594.594,0,0,0,88.558,36.824Z" transform="translate(-19.517 -8.79)" fill="none" stroke="#8a795f" stroke-miterlimit="10" stroke-width="0.75" fill-rule="evenodd"/><path d="M74.305,21.366a.634.634,0,0,0-.469.18.488.488,0,0,0-.146.432l-.036.037a.755.755,0,0,0,.216.433c.023.023.048.048.073.072a.633.633,0,0,0,.323.108.541.541,0,0,0,.649-.649.481.481,0,0,0-.145-.432A.62.62,0,0,0,74.305,21.366Z" transform="translate(-16.391 -5.511)" fill="none" stroke="#8a795f" stroke-miterlimit="10" stroke-width="0.75" fill-rule="evenodd"/><path d="M81.073,36.916a.541.541,0,0,0-.649-.649.484.484,0,0,0-.432.145.7.7,0,0,0,0,.936.481.481,0,0,0,.432.145l.037.037a.747.747,0,0,0,.433-.216c.023-.024.048-.048.072-.072A.673.673,0,0,0,81.073,36.916Z" transform="translate(-17.683 -8.808)" fill="none" stroke="#8a795f" stroke-miterlimit="10" stroke-width="0.75" fill-rule="evenodd"/><path d="M73.656,30.714a.479.479,0,0,0,.181.4v.035a.718.718,0,0,0,.469.181h.107a.625.625,0,0,0,.325-.181.543.543,0,0,0,.216-.432.674.674,0,0,0-.648-.648.716.716,0,0,0-.469.179A.634.634,0,0,0,73.656,30.714Z" transform="translate(-16.391 -7.437)" fill="none" stroke="#8a795f" stroke-miterlimit="10" stroke-width="0.75" fill-rule="evenodd"/><path d="M36.68,25.678a.634.634,0,0,0-.469.18.487.487,0,0,0-.146.432l-.036.037a.751.751,0,0,0,.216.432c.023.024.047.048.073.072a.626.626,0,0,0,.323.108.54.54,0,0,0,.649-.649.48.48,0,0,0-.145-.432A.627.627,0,0,0,36.68,25.678Z" transform="translate(-8.905 -6.466)" fill="none" stroke="#8a795f" stroke-miterlimit="10" stroke-width="0.75" fill-rule="evenodd"/><path d="M56.68,25.678a.634.634,0,0,0-.469.18.487.487,0,0,0-.146.432l-.036.037a.751.751,0,0,0,.216.432c.023.024.047.048.073.072a.626.626,0,0,0,.323.108.54.54,0,0,0,.649-.649.48.48,0,0,0-.145-.432A.627.627,0,0,0,56.68,25.678Z" transform="translate(-12.694 -6.466)" fill="none" stroke="#8a795f" stroke-miterlimit="10" stroke-width="0.75" fill-rule="evenodd"/><path d="M18.513,13.345a.634.634,0,0,0-.469.18.488.488,0,0,0-.146.432l-.036.037a.755.755,0,0,0,.216.433c.023.023.047.048.073.072a.633.633,0,0,0,.323.108.541.541,0,0,0,.649-.649.481.481,0,0,0-.145-.432A.62.62,0,0,0,18.513,13.345Z" transform="translate(-4.883 -3.735)" fill="none" stroke="#8a795f" stroke-miterlimit="10" stroke-width="0.75" fill-rule="evenodd"/><path d="M105.93,8.011a.634.634,0,0,0-.469.18.487.487,0,0,0-.146.432l-.036.037a.755.755,0,0,0,.216.433c.023.023.048.048.073.072a.633.633,0,0,0,.323.108.541.541,0,0,0,.649-.649.481.481,0,0,0-.145-.432A.624.624,0,0,0,105.93,8.011Z" transform="translate(-23.025 -2.554)" fill="none" stroke="#8a795f" stroke-miterlimit="10" stroke-width="0.75" fill-rule="evenodd"/><path d="M105.93,43.178a.634.634,0,0,0-.469.179.487.487,0,0,0-.146.432l-.036.037a.755.755,0,0,0,.216.434c.023.023.048.048.073.072a.64.64,0,0,0,.323.108.541.541,0,0,0,.649-.649.482.482,0,0,0-.145-.432A.624.624,0,0,0,105.93,43.178Z" transform="translate(-23.025 -10.34)" fill="none" stroke="#8a795f" stroke-miterlimit="10" stroke-width="0.75" fill-rule="evenodd"/><path d="M18.513,37.928a.634.634,0,0,0-.469.179.488.488,0,0,0-.146.432l-.036.037a.755.755,0,0,0,.216.434c.023.023.047.047.073.072a.64.64,0,0,0,.323.108.541.541,0,0,0,.649-.649.481.481,0,0,0-.145-.432A.622.622,0,0,0,18.513,37.928Z" transform="translate(-4.883 -9.178)" fill="none" stroke="#8a795f" stroke-miterlimit="10" stroke-width="0.75" fill-rule="evenodd"/><path d="M44.138,13.345a.634.634,0,0,0-.469.18.488.488,0,0,0-.146.432l-.036.037a.755.755,0,0,0,.216.433c.023.023.047.048.073.072a.633.633,0,0,0,.323.108.541.541,0,0,0,.649-.649.481.481,0,0,0-.145-.432A.62.62,0,0,0,44.138,13.345Z" transform="translate(-10.556 -3.735)" fill="none" stroke="#8a795f" stroke-miterlimit="10" stroke-width="0.75" fill-rule="evenodd"/><path d="M44.138,37.928a.634.634,0,0,0-.469.179.488.488,0,0,0-.146.432l-.036.037a.755.755,0,0,0,.216.434c.023.023.047.047.073.072a.64.64,0,0,0,.323.108.541.541,0,0,0,.649-.649.481.481,0,0,0-.145-.432A.622.622,0,0,0,44.138,37.928Z" transform="translate(-10.556 -9.178)" fill="none" stroke="#8a795f" stroke-miterlimit="10" stroke-width="0.75" fill-rule="evenodd"/><path d="M22.471,25.076a.762.762,0,0,0-.564.216.587.587,0,0,0-.174.52l-.043.044a.908.908,0,0,0,.26.52c.029.027.057.057.087.085a.772.772,0,0,0,.389.13.65.65,0,0,0,.779-.779.579.579,0,0,0-.174-.52A.749.749,0,0,0,22.471,25.076Z" transform="translate(-5.73 -6.332)" fill="none" stroke="#8a795f" stroke-miterlimit="10" stroke-width="0.75" fill-rule="evenodd"/><path d="M55.774,21.709a.634.634,0,0,0-.469.18.488.488,0,0,0-.146.432l-.036.037a.755.755,0,0,0,.216.433c.023.023.048.048.073.072a.633.633,0,0,0,.323.108.541.541,0,0,0,.649-.649.481.481,0,0,0-.145-.432A.624.624,0,0,0,55.774,21.709Z" transform="translate(-12.504 -5.587)" fill="none" stroke="#8a795f" stroke-miterlimit="10" stroke-width="0.75" fill-rule="evenodd"/><path d="M55.774,29.709a.634.634,0,0,0-.469.179.489.489,0,0,0-.146.434l-.036.037a.755.755,0,0,0,.216.432c.023.024.048.048.073.072a.626.626,0,0,0,.323.108.54.54,0,0,0,.649-.648.483.483,0,0,0-.145-.434A.624.624,0,0,0,55.774,29.709Z" transform="translate(-12.504 -7.358)" fill="none" stroke="#8a795f" stroke-miterlimit="10" stroke-width="0.75" fill-rule="evenodd"/></g></g></g></g></svg>